<svg id="visual" viewBox="0 0 960 540" width="960" height="540" xmlns="http://www.w3.org/2000/svg" xmlns:xlink="http://www.w3.org/1999/xlink" version="1.1"><rect x="0" y="0" width="960" height="540" fill="#313953"></rect><path d="M0 436L22.8 428.7C45.7 421.3 91.3 406.7 137 399C182.7 391.3 228.3 390.7 274 391C319.7 391.3 365.3 392.7 411.2 396.8C457 401 503 408 548.8 408.5C594.7 409 640.3 403 686 394.5C731.7 386 777.3 375 823 370.5C868.7 366 914.3 368 937.2 369L960 370L960 541L937.2 541C914.3 541 868.7 541 823 541C777.3 541 731.7 541 686 541C640.3 541 594.7 541 548.8 541C503 541 457 541 411.2 541C365.3 541 319.7 541 274 541C228.3 541 182.7 541 137 541C91.3 541 45.7 541 22.8 541L0 541Z" fill="#ffdd21"></path><path d="M0 401L22.8 406.2C45.7 411.3 91.3 421.7 137 426.3C182.7 431 228.3 430 274 431.7C319.7 433.3 365.3 437.7 411.2 443.2C457 448.7 503 455.3 548.8 451.7C594.7 448 640.3 434 686 426C731.7 418 777.3 416 823 413.5C868.7 411 914.3 408 937.2 406.5L960 405L960 541L937.2 541C914.3 541 868.7 541 823 541C777.3 541 731.7 541 686 541C640.3 541 594.7 541 548.8 541C503 541 457 541 411.2 541C365.3 541 319.7 541 274 541C228.3 541 182.7 541 137 541C91.3 541 45.7 541 22.8 541L0 541Z" fill="#ffab20"></path><path d="M0 458L22.8 460.8C45.7 463.7 91.3 469.3 137 466.7C182.7 464 228.3 453 274 455C319.7 457 365.3 472 411.2 472.3C457 472.7 503 458.3 548.8 450C594.7 441.7 640.3 439.3 686 444.8C731.7 450.3 777.3 463.7 823 472C868.7 480.3 914.3 483.7 937.2 485.3L960 487L960 541L937.2 541C914.3 541 868.7 541 823 541C777.3 541 731.7 541 686 541C640.3 541 594.7 541 548.8 541C503 541 457 541 411.2 541C365.3 541 319.7 541 274 541C228.3 541 182.7 541 137 541C91.3 541 45.7 541 22.8 541L0 541Z" fill="#fd7b33"></path><path d="M0 513L22.8 508.7C45.7 504.3 91.3 495.7 137 492.5C182.7 489.3 228.3 491.7 274 493.5C319.7 495.3 365.3 496.7 411.2 499.8C457 503 503 508 548.8 508.7C594.7 509.3 640.3 505.7 686 502.5C731.7 499.3 777.3 496.7 823 496C868.7 495.3 914.3 496.7 937.2 497.3L960 498L960 541L937.2 541C914.3 541 868.7 541 823 541C777.3 541 731.7 541 686 541C640.3 541 594.7 541 548.8 541C503 541 457 541 411.2 541C365.3 541 319.7 541 274 541C228.3 541 182.7 541 137 541C91.3 541 45.7 541 22.8 541L0 541Z" fill="#ef4b49"></path></svg>